<svg width="29" height="44" viewBox="0 0 29 44" fill="none" xmlns="http://www.w3.org/2000/svg">
<path fill-rule="evenodd" clip-rule="evenodd" d="M13.7905 0.714217L0.290536 14.3047C0.104442 14.492 0 14.7454 0 15.0094V28.7862C0 29.0478 0.102514 29.299 0.285556 29.4859L13.7856 43.2705C14.1777 43.6709 14.8223 43.6709 15.2144 43.2705L28.7144 29.4859C28.8975 29.299 29 29.0478 29 28.7862V15.0094C29 14.7454 28.8956 14.492 28.7095 14.3047L15.2095 0.714219C14.8184 0.320541 14.1816 0.32054 13.7905 0.714217ZM13.7955 15.3165L8.02771 21.2058C7.6508 21.5907 7.64647 22.205 8.01794 22.5951L13.7858 28.6529C14.1761 29.0628 14.8285 29.0674 15.2245 28.663L21.1571 22.6054C21.5417 22.2127 21.5372 21.5832 21.1472 21.196L15.2144 15.3065C14.8206 14.9155 14.1838 14.92 13.7955 15.3165Z" fill="url(#paint0_linear_1409_1033)"/>
<defs>
<linearGradient id="paint0_linear_1409_1033" x1="14.5" y1="-1.29845e-08" x2="14.5" y2="44" gradientUnits="userSpaceOnUse">
<stop stop-color="#FCCD33"/>
<stop offset="1" stop-color="#F2736D"/>
</linearGradient>
</defs>
</svg>
