<svg width="41" height="28" viewBox="0 0 41 28" fill="none" xmlns="http://www.w3.org/2000/svg">
<path d="M1 27V11.8333L13.4286 3.6V11.8333L25.8571 3.6V11.8333H28.8571V8.8H30.1429L31 1H35.2857L36.1429 8.8H37.4286V11.8333H40V27H37H29.2857H1Z" fill="#B5B5B5"/>
<path d="M28.8571 11.8333H25.8571V3.6L13.4286 11.8333V3.6L1 11.8333V27H29.2857M28.8571 11.8333V8.8H30.1429M28.8571 11.8333H37.4286M37.4286 11.8333H40V27H37M37.4286 11.8333V8.8H36.1429M36.1429 8.8L35.2857 1H31L30.1429 8.8M36.1429 8.8H30.1429M29.2857 27V18.7667H37V27M29.2857 27H37M9.57143 15.3H4.42857V19.2M9.57143 15.3V23.1M9.57143 15.3H14.7143M9.57143 23.1H4.42857V19.2M9.57143 23.1H14.7143M14.7143 15.3V23.1M14.7143 15.3H19.8571M14.7143 23.1H19.8571M19.8571 15.3H25V19.2M19.8571 15.3V23.1M19.8571 23.1H25V19.2M25 19.2H4.42857" stroke="#737373"/>
</svg>
